<svg width="1440" height="716" fill="none" xmlns="http://www.w3.org/2000/svg"><g opacity=".08"><mask id="a" style="mask-type:luminance" maskUnits="userSpaceOnUse" x="-279" y="-247" width="1008" height="1255"><path fill-rule="evenodd" clip-rule="evenodd" d="M-279-246.058H728.659V1007.06H-279V-246.058Z" fill="#fff"/></mask><g mask="url(#a)"><path fill-rule="evenodd" clip-rule="evenodd" d="m510.328 943.402-78.232-81.935 61.935-94.837 59.573-91.176H110.335V537.561h525.404v-77.109c-52.143-68.382-83.196-151.275-91.208-245.771H110.335V85.515h437.586c18.351-132.074 82.683-246.284 180.738-331.573H-279.01V1007.06h865.002c-27.869-19.473-53.546-40.521-75.664-63.658Z" fill="#fff"/></g><mask id="b" style="mask-type:luminance" maskUnits="userSpaceOnUse" x="610" y="-267" width="1112" height="1295"><path fill-rule="evenodd" clip-rule="evenodd" d="M610.626-267H1721v1295H610.626V-267Z" fill="#fff"/></mask><g mask="url(#b)"><path fill-rule="evenodd" clip-rule="evenodd" d="M804.409 548.037c115.242 111.711 261.881 158.839 382.361 158.839 87.3 0 141.4-26.182 141.4-76.801 0-59.347-69.81-66.329-265.37-101.238-179.817-31.419-380.584-104.695-380.584-364.772C682.216-104.704 916.159-267 1204.23-267c221.72 0 396.33 78.512 502.84 176.26l-193.81 270.515c-87.31-83.783-206.01-125.64-319.51-125.64-71.59 0-122.22 19.2-122.22 69.819 0 52.33 68.1 61.057 213.02 88.985 190.29 36.655 436.46 94.256 436.46 376.99 0 282.733-246.17 438.081-551.7 438.081-199.022 0-448.714-68.073-558.684-183.275l193.783-296.698Z" fill="#fff"/></g></g></svg>