<svg data-name="Layer 1" xmlns="http://www.w3.org/2000/svg" viewBox="0 0 608 429"><path d="M608 0h-74.5c26.9 0 51.8 3.2 74.5 8.8V0ZM529.7 115.6c-25.8 0-44 6.9-44 25.1s24.5 22 76.6 32c14.6 2.8 30.2 6 45.6 10.2v-48.3c-24.5-12.7-51.8-19.1-78.3-19.1Z" fill="#185100"/><path d="M297.4 126.8H140v46.5h156.2c2.9 34 14 63.8 32.8 88.4v27.8H140v49.6h159.4L278 371.9 255.7 406l21.9 23h82.6c-16.1-8.4-29.9-18.1-40.3-29l69.7-106.8c41.5 40.2 94.2 57.1 137.5 57.1s50.9-9.4 50.9-27.6-25.1-23.9-95.5-36.4c-64.7-11.3-136.9-37.7-136.9-131.2S429.9 0 533.5 0H0v7.5h362.4c-35.3 30.7-58.4 71.8-65 119.3Z" fill="#185100"/></svg>