<svg data-name="Layer 1" xmlns="http://www.w3.org/2000/svg" viewBox="0 0 864 600"><path d="M0 0h1003v600H0V0Z" fill="none"/><path d="M738.6 161.1c-35.9 0-61.3 9.6-61.3 35s34.1 30.6 106.8 44.7c25.6 4.9 53.2 10.6 79.9 19V197c-38-23.9-82.5-35.9-125.4-35.9ZM864 0H743.8c44 0 84.2 6.2 120.2 16.6V0Z" fill="#185100"/><path d="M414.7 176.9H195.3v64.8H413c4 47.4 19.6 89 45.8 123.3v38.7H195.3v69.2h222.3l-29.9 45.7-31.1 47.6 32.3 33.9h117c-23.9-12.1-44.5-26.3-59.7-42.2L543.4 409c57.8 56 131.3 79.7 191.8 79.7s70.9-13.1 70.9-38.5-35-33.3-133.1-50.8c-90.2-15.8-190.9-52.5-190.9-183S599.4 0 743.8 0H0v10.5h505.3c-49.2 42.8-81.4 100.1-90.6 166.4Z" fill="#185100"/></svg>